<?xml version='1.0' encoding='UTF-8' standalone='no'?>
<!-- Created with Fritzing (http://www.fritzing.org/) -->
<svg xmlns:svg='http://www.w3.org/2000/svg' xmlns='http://www.w3.org/2000/svg' version='1.2' baseProfile='tiny' x='0in' y='0in' width='2.29324in' height='3.05665in' viewBox='0 0 165.113 220.078' >
<g partID='57560'><g transform='translate(160.313,82.876)' ><g transform='matrix(0,1,-1,0,0,0)'  ><g id="schematic">
<rect y="14.85" height="121.5" fill="#FFFFFF" width="63.9" stroke-width="0.9" class="interior rect" stroke-linecap="round" x="14.85" stroke="#000000"/>
<line fill="none" id="connector2pin" y1="28.8" stroke-width="0.699999" y2="28.8" class="pin" x1="78.8499" stroke-linecap="round" x2="93.2499" stroke="#787878"/>
<text y="27.75" fill="#8c8c8c" text-anchor="middle" font-size="2.5" stroke-width="0" class="text" font-family="'Droid Sans'" stroke="none" x="86.0499">3</text>
<text y="29.4999" fill="#8c8c8c" text-anchor="end" font-size="3.49999" stroke-width="0" class="text" font-family="'Droid Sans'" stroke="none" x="77.4499">D13_SPCK</text>
<g y="28.4499" height="0.699999" fill="none" id="connector2terminal" width="0.699999" stroke-width="0" class="terminal" x="93.2499" stroke="none"/>
<line fill="none" id="connector3pin" y1="36" stroke-width="0.699999" y2="36" class="pin" x1="78.8499" stroke-linecap="round" x2="93.2499" stroke="#787878"/>
<text y="34.95" fill="#8c8c8c" text-anchor="middle" font-size="2.5" stroke-width="0" class="text" font-family="'Droid Sans'" stroke="none" x="86.0499">4</text>
<text y="36.6999" fill="#8c8c8c" text-anchor="end" font-size="3.49999" stroke-width="0" class="text" font-family="'Droid Sans'" stroke="none" x="77.4499">D12_MISO</text>
<g y="35.6499" height="0.699999" fill="none" id="connector3terminal" width="0.699999" stroke-width="0" class="terminal" x="93.2499" stroke="none"/>
<line fill="none" id="connector4pin" y1="43.2" stroke-width="0.699999" y2="43.2" class="pin" x1="78.8499" stroke-linecap="round" x2="93.2499" stroke="#787878"/>
<text y="42.15" fill="#8c8c8c" text-anchor="middle" font-size="2.5" stroke-width="0" class="text" font-family="'Droid Sans'" stroke="none" x="86.0499">5</text>
<text y="43.8999" fill="#8c8c8c" text-anchor="end" font-size="3.49999" stroke-width="0" class="text" font-family="'Droid Sans'" stroke="none" x="77.4499">D11_MOSI</text>
<g y="42.8499" height="0.699999" fill="none" id="connector4terminal" width="0.699999" stroke-width="0" class="terminal" x="93.2499" stroke="none"/>
<line fill="none" id="connector5pin" y1="50.4" stroke-width="0.699999" y2="50.4" class="pin" x1="78.8499" stroke-linecap="round" x2="93.2499" stroke="#787878"/>
<text y="49.35" fill="#8c8c8c" text-anchor="middle" font-size="2.5" stroke-width="0" class="text" font-family="'Droid Sans'" stroke="none" x="86.0499">6</text>
<text y="51.0999" fill="#8c8c8c" text-anchor="end" font-size="3.49999" stroke-width="0" class="text" font-family="'Droid Sans'" stroke="none" x="77.4499">D10_PWM3</text>
<g y="50.0499" height="0.699999" fill="none" id="connector5terminal" width="0.699999" stroke-width="0" class="terminal" x="93.2499" stroke="none"/>
<line fill="none" id="connector6pin" y1="57.6" stroke-width="0.699999" y2="57.6" class="pin" x1="78.8499" stroke-linecap="round" x2="93.2499" stroke="#787878"/>
<text y="56.55" fill="#8c8c8c" text-anchor="middle" font-size="2.5" stroke-width="0" class="text" font-family="'Droid Sans'" stroke="none" x="86.0499">7</text>
<text y="58.2999" fill="#8c8c8c" text-anchor="end" font-size="3.49999" stroke-width="0" class="text" font-family="'Droid Sans'" stroke="none" x="77.4499">D9_PWM2</text>
<g y="57.2499" height="0.699999" fill="none" id="connector6terminal" width="0.699999" stroke-width="0" class="terminal" x="93.2499" stroke="none"/>
<line fill="none" id="connector7pin" y1="64.8" stroke-width="0.699999" y2="64.8" class="pin" x1="78.8499" stroke-linecap="round" x2="93.2499" stroke="#787878"/>
<text y="63.75" fill="#8c8c8c" text-anchor="middle" font-size="2.5" stroke-width="0" class="text" font-family="'Droid Sans'" stroke="none" x="86.0499">8</text>
<text y="65.4999" fill="#8c8c8c" text-anchor="end" font-size="3.49999" stroke-width="0" class="text" font-family="'Droid Sans'" stroke="none" x="77.4499">D8_CTS1</text>
<g y="64.4499" height="0.699999" fill="none" id="connector7terminal" width="0.699999" stroke-width="0" class="terminal" x="93.2499" stroke="none"/>
<line fill="none" id="connector8pin" y1="72" stroke-width="0.699999" y2="72" class="pin" x1="78.8499" stroke-linecap="round" x2="93.2499" stroke="#787878"/>
<text y="70.95" fill="#8c8c8c" text-anchor="middle" font-size="2.5" stroke-width="0" class="text" font-family="'Droid Sans'" stroke="none" x="86.0499">9</text>
<text y="72.6999" fill="#8c8c8c" text-anchor="end" font-size="3.49999" stroke-width="0" class="text" font-family="'Droid Sans'" stroke="none" x="77.4499">D7_RTS1</text>
<g y="71.6499" height="0.699999" fill="none" id="connector8terminal" width="0.699999" stroke-width="0" class="terminal" x="93.2499" stroke="none"/>
<line fill="none" id="connector9pin" y1="79.2" stroke-width="0.699999" y2="79.2" class="pin" x1="78.8499" stroke-linecap="round" x2="93.2499" stroke="#787878"/>
<text y="78.15" fill="#8c8c8c" text-anchor="middle" font-size="2.5" stroke-width="0" class="text" font-family="'Droid Sans'" stroke="none" x="86.0499">10</text>
<text y="79.8999" fill="#8c8c8c" text-anchor="end" font-size="3.49999" stroke-width="0" class="text" font-family="'Droid Sans'" stroke="none" x="77.4499">D6_PWM1</text>
<g y="78.8499" height="0.699999" fill="none" id="connector9terminal" width="0.699999" stroke-width="0" class="terminal" x="93.2499" stroke="none"/>
<line fill="none" id="connector10pin" y1="86.4" stroke-width="0.699999" y2="86.4" class="pin" x1="78.8499" stroke-linecap="round" x2="93.2499" stroke="#787878"/>
<text y="85.35" fill="#8c8c8c" text-anchor="middle" font-size="2.5" stroke-width="0" class="text" font-family="'Droid Sans'" stroke="none" x="86.0499">11</text>
<text y="87.0999" fill="#8c8c8c" text-anchor="end" font-size="3.49999" stroke-width="0" class="text" font-family="'Droid Sans'" stroke="none" x="77.4499">D5_PWM0</text>
<g y="86.0499" height="0.699999" fill="none" id="connector10terminal" width="0.699999" stroke-width="0" class="terminal" x="93.2499" stroke="none"/>
<line fill="none" id="connector11pin" y1="93.6" stroke-width="0.699999" y2="93.6" class="pin" x1="78.8499" stroke-linecap="round" x2="93.2499" stroke="#787878"/>
<text y="92.55" fill="#8c8c8c" text-anchor="middle" font-size="2.5" stroke-width="0" class="text" font-family="'Droid Sans'" stroke="none" x="86.0499">12</text>
<text y="94.2999" fill="#8c8c8c" text-anchor="end" font-size="3.49999" stroke-width="0" class="text" font-family="'Droid Sans'" stroke="none" x="77.4499">D4_CS0</text>
<g y="93.2499" height="0.699999" fill="none" id="connector11terminal" width="0.699999" stroke-width="0" class="terminal" x="93.2499" stroke="none"/>
<line fill="none" id="connector12pin" y1="100.8" stroke-width="0.699999" y2="100.8" class="pin" x1="78.8499" stroke-linecap="round" x2="93.2499" stroke="#787878"/>
<text y="99.75" fill="#8c8c8c" text-anchor="middle" font-size="2.5" stroke-width="0" class="text" font-family="'Droid Sans'" stroke="none" x="86.0499">13</text>
<text y="101.5" fill="#8c8c8c" text-anchor="end" font-size="3.49999" stroke-width="0" class="text" font-family="'Droid Sans'" stroke="none" x="77.4499">D3_TX1</text>
<g y="100.45" height="0.699999" fill="none" id="connector12terminal" width="0.699999" stroke-width="0" class="terminal" x="93.2499" stroke="none"/>
<line fill="none" id="connector13pin" y1="108" stroke-width="0.699999" y2="108" class="pin" x1="78.8499" stroke-linecap="round" x2="93.2499" stroke="#787878"/>
<text y="106.95" fill="#8c8c8c" text-anchor="middle" font-size="2.5" stroke-width="0" class="text" font-family="'Droid Sans'" stroke="none" x="86.0499">14</text>
<text y="108.7" fill="#8c8c8c" text-anchor="end" font-size="3.49999" stroke-width="0" class="text" font-family="'Droid Sans'" stroke="none" x="77.4499">D2_RX1</text>
<g y="107.65" height="0.699999" fill="none" id="connector13terminal" width="0.699999" stroke-width="0" class="terminal" x="93.2499" stroke="none"/>
<line fill="none" id="connector14pin" y1="115.2" stroke-width="0.699999" y2="115.2" class="pin" x1="78.8499" stroke-linecap="round" x2="93.2499" stroke="#787878"/>
<text y="114.15" fill="#8c8c8c" text-anchor="middle" font-size="2.5" stroke-width="0" class="text" font-family="'Droid Sans'" stroke="none" x="86.0499">15</text>
<text y="115.9" fill="#8c8c8c" text-anchor="end" font-size="3.49999" stroke-width="0" class="text" font-family="'Droid Sans'" stroke="none" x="77.4499">D1_TX0</text>
<g y="114.85" height="0.699999" fill="none" id="connector14terminal" width="0.699999" stroke-width="0" class="terminal" x="93.2499" stroke="none"/>
<line fill="none" id="connector15pin" y1="122.4" stroke-width="0.699999" y2="122.4" class="pin" x1="78.8499" stroke-linecap="round" x2="93.2499" stroke="#787878"/>
<text y="121.35" fill="#8c8c8c" text-anchor="middle" font-size="2.5" stroke-width="0" class="text" font-family="'Droid Sans'" stroke="none" x="86.0499">16</text>
<text y="123.1" fill="#8c8c8c" text-anchor="end" font-size="3.49999" stroke-width="0" class="text" font-family="'Droid Sans'" stroke="none" x="77.4499">D0_RX0</text>
<g y="122.05" height="0.699999" fill="none" id="connector15terminal" width="0.699999" stroke-width="0" class="terminal" x="93.2499" stroke="none"/>
<line fill="none" id="connector16pin" y1="28.8" stroke-width="0.699999" y2="28.8" class="pin" x1="0.349999" stroke-linecap="round" x2="14.75" stroke="#787878"/>
<text y="27.75" fill="#8c8c8c" text-anchor="middle" font-size="2.5" stroke-width="0" class="text" font-family="'Droid Sans'" stroke="none" x="7.54999">17</text>
<text y="29.4999" fill="#8c8c8c" text-anchor="start" font-size="3.49999" stroke-width="0" class="text" font-family="'Droid Sans'" stroke="none" x="16.15">RST</text>
<g y="28.4499" height="0.699999" fill="none" id="connector16terminal" width="0.699999" stroke-width="0" class="terminal" x="-0.349999" stroke="none"/>
<line fill="none" id="connector0pin" y1="36" stroke-width="0.699999" y2="36" class="pin" x1="0.349999" stroke-linecap="round" x2="14.75" stroke="#787878"/>
<text y="34.95" fill="#8c8c8c" text-anchor="middle" font-size="2.5" stroke-width="0" class="text" font-family="'Droid Sans'" stroke="none" x="7.54999">1</text>
<text y="36.6999" fill="#8c8c8c" text-anchor="start" font-size="3.49999" stroke-width="0" class="text" font-family="'Droid Sans'" stroke="none" x="16.15">Aref</text>
<g y="35.6499" height="0.699999" fill="none" id="connector0terminal" width="0.699999" stroke-width="0" class="terminal" x="-0.349999" stroke="none"/>
<line fill="none" id="connector22pin" y1="86.4" stroke-width="0.699999" y2="86.4" class="pin" x1="0.349999" stroke-linecap="round" x2="14.75" stroke="#787878"/>
<text y="85.35" fill="#8c8c8c" text-anchor="middle" font-size="2.5" stroke-width="0" class="text" font-family="'Droid Sans'" stroke="none" x="7.54999">23</text>
<text y="87.0999" fill="#8c8c8c" text-anchor="start" font-size="3.49999" stroke-width="0" class="text" font-family="'Droid Sans'" stroke="none" x="16.15">A0</text>
<g y="86.0499" height="0.699999" fill="none" id="connector22terminal" width="0.699999" stroke-width="0" class="terminal" x="-0.349999" stroke="none"/>
<line fill="none" id="connector23pin" y1="93.6" stroke-width="0.699999" y2="93.6" class="pin" x1="0.349999" stroke-linecap="round" x2="14.75" stroke="#787878"/>
<text y="92.55" fill="#8c8c8c" text-anchor="middle" font-size="2.5" stroke-width="0" class="text" font-family="'Droid Sans'" stroke="none" x="7.54999">24</text>
<text y="94.2999" fill="#8c8c8c" text-anchor="start" font-size="3.49999" stroke-width="0" class="text" font-family="'Droid Sans'" stroke="none" x="16.15">A1</text>
<g y="93.2499" height="0.699999" fill="none" id="connector23terminal" width="0.699999" stroke-width="0" class="terminal" x="-0.349999" stroke="none"/>
<line fill="none" id="connector24pin" y1="100.8" stroke-width="0.699999" y2="100.8" class="pin" x1="0.349999" stroke-linecap="round" x2="14.75" stroke="#787878"/>
<text y="99.75" fill="#8c8c8c" text-anchor="middle" font-size="2.5" stroke-width="0" class="text" font-family="'Droid Sans'" stroke="none" x="7.54999">25</text>
<text y="101.5" fill="#8c8c8c" text-anchor="start" font-size="3.49999" stroke-width="0" class="text" font-family="'Droid Sans'" stroke="none" x="16.15">A2</text>
<g y="100.45" height="0.699999" fill="none" id="connector24terminal" width="0.699999" stroke-width="0" class="terminal" x="-0.349999" stroke="none"/>
<line fill="none" id="connector25pin" y1="108" stroke-width="0.699999" y2="108" class="pin" x1="0.349999" stroke-linecap="round" x2="14.75" stroke="#787878"/>
<text y="106.95" fill="#8c8c8c" text-anchor="middle" font-size="2.5" stroke-width="0" class="text" font-family="'Droid Sans'" stroke="none" x="7.54999">26</text>
<text y="108.7" fill="#8c8c8c" text-anchor="start" font-size="3.49999" stroke-width="0" class="text" font-family="'Droid Sans'" stroke="none" x="16.15">A3</text>
<g y="107.65" height="0.699999" fill="none" id="connector25terminal" width="0.699999" stroke-width="0" class="terminal" x="-0.349999" stroke="none"/>
<line fill="none" id="connector26pin" y1="115.2" stroke-width="0.699999" y2="115.2" class="pin" x1="0.349999" stroke-linecap="round" x2="14.75" stroke="#787878"/>
<text y="114.15" fill="#8c8c8c" text-anchor="middle" font-size="2.5" stroke-width="0" class="text" font-family="'Droid Sans'" stroke="none" x="7.54999">27</text>
<text y="115.9" fill="#8c8c8c" text-anchor="start" font-size="3.49999" stroke-width="0" class="text" font-family="'Droid Sans'" stroke="none" x="16.15">A4_TWD</text>
<g y="114.85" height="0.699999" fill="none" id="connector26terminal" width="0.699999" stroke-width="0" class="terminal" x="-0.349999" stroke="none"/>
<line fill="none" id="connector27pin" y1="122.4" stroke-width="0.699999" y2="122.4" class="pin" x1="0.349999" stroke-linecap="round" x2="14.75" stroke="#787878"/>
<text y="121.35" fill="#8c8c8c" text-anchor="middle" font-size="2.5" stroke-width="0" class="text" font-family="'Droid Sans'" stroke="none" x="7.54999">28</text>
<text y="123.1" fill="#8c8c8c" text-anchor="start" font-size="3.49999" stroke-width="0" class="text" font-family="'Droid Sans'" stroke="none" x="16.15">A5_TWCK</text>
<g y="122.05" height="0.699999" fill="none" id="connector27terminal" width="0.699999" stroke-width="0" class="terminal" x="-0.349999" stroke="none"/>
<line fill="none" id="connector19pin" y1="136.45" stroke-width="0" y2="150.85" class="pin" x1="43.2" stroke-linecap="round" x2="43.2" stroke="none"/>
<g y="150.85" height="0.699999" fill="none" id="connector19terminal" width="0.699999" stroke-width="0" class="terminal" x="42.8499" stroke="none"/>
<line fill="none" id="connector20pin" y1="136.45" stroke-width="0" y2="150.85" class="pin" x1="43.2" stroke-linecap="round" x2="43.2" stroke="none"/>
<g y="150.85" height="0.699999" fill="none" id="connector20terminal" width="0.699999" stroke-width="0" class="terminal" x="42.8499" stroke="none"/>
<line fill="none" id="connector1pin" y1="136.45" stroke-width="0.699999" y2="150.85" class="pin" x1="43.2" stroke-linecap="round" x2="43.2" stroke="#787878"/>
<g transform="matrix(1, 0, 0, 1, 42.15, 143.65)">
<g>
<g transform="rotate(270)">
<g>
<text y="0" fill="#8c8c8c" text-anchor="middle" font-size="2.5" stroke-width="0" class="text" font-family="'Droid Sans'" stroke="none" x="0">2</text>
</g>
</g>
</g>
</g>
<g transform="matrix(1, 0, 0, 1, 43.8999, 135.05)">
<g>
<g transform="rotate(270)">
<g>
<text y="0" fill="#8c8c8c" text-anchor="start" font-size="3.49999" stroke-width="0" class="text" font-family="'Droid Sans'" stroke="none" x="0">GND</text>
</g>
</g>
</g>
</g>
<g y="150.85" height="0.699999" fill="none" id="connector1terminal" width="0.699999" stroke-width="0" class="terminal" x="42.8499" stroke="none"/>
<line fill="none" id="connector17pin" y1="0.349999" stroke-width="0.699999" y2="14.75" class="pin" x1="28.8" stroke-linecap="round" x2="28.8" stroke="#787878"/>
<g transform="matrix(1, 0, 0, 1, 27.75, 7.54999)">
<g>
<g transform="rotate(270)">
<g>
<text y="0" fill="#8c8c8c" text-anchor="middle" font-size="2.5" stroke-width="0" class="text" font-family="'Droid Sans'" stroke="none" x="0">18</text>
</g>
</g>
</g>
</g>
<g transform="matrix(1, 0, 0, 1, 29.4999, 16.15)">
<g>
<g transform="rotate(270)">
<g>
<text y="0" fill="#8c8c8c" text-anchor="end" font-size="3.49999" stroke-width="0" class="text" font-family="'Droid Sans'" stroke="none" x="0">3V3</text>
</g>
</g>
</g>
</g>
<g y="-0.349999" height="0.699999" fill="none" id="connector17terminal" width="0.699999" stroke-width="0" class="terminal" x="28.4499" stroke="none"/>
<line fill="none" id="connector18pin" y1="0.349999" stroke-width="0.699999" y2="14.75" class="pin" x1="36" stroke-linecap="round" x2="36" stroke="#787878"/>
<g transform="matrix(1, 0, 0, 1, 34.95, 7.54999)">
<g>
<g transform="rotate(270)">
<g>
<text y="0" fill="#8c8c8c" text-anchor="middle" font-size="2.5" stroke-width="0" class="text" font-family="'Droid Sans'" stroke="none" x="0">19</text>
</g>
</g>
</g>
</g>
<g transform="matrix(1, 0, 0, 1, 36.6999, 16.15)">
<g>
<g transform="rotate(270)">
<g>
<text y="0" fill="#8c8c8c" text-anchor="end" font-size="3.49999" stroke-width="0" class="text" font-family="'Droid Sans'" stroke="none" x="0">+5V</text>
</g>
</g>
</g>
</g>
<g y="-0.349999" height="0.699999" fill="none" id="connector18terminal" width="0.699999" stroke-width="0" class="terminal" x="35.6499" stroke="none"/>
<line fill="none" id="connector21pin" y1="0.349999" stroke-width="0.699999" y2="14.75" class="pin" x1="57.6" stroke-linecap="round" x2="57.6" stroke="#787878"/>
<g transform="matrix(1, 0, 0, 1, 56.55, 7.54999)">
<g>
<g transform="rotate(270)">
<g>
<text y="0" fill="#8c8c8c" text-anchor="middle" font-size="2.5" stroke-width="0" class="text" font-family="'Droid Sans'" stroke="none" x="0">22</text>
</g>
</g>
</g>
</g>
<g transform="matrix(1, 0, 0, 1, 58.2999, 16.15)">
<g>
<g transform="rotate(270)">
<g>
<text y="0" fill="#8c8c8c" text-anchor="end" font-size="3.49999" stroke-width="0" class="text" font-family="'Droid Sans'" stroke="none" x="0">VIN</text>
</g>
</g>
</g>
</g>
<g y="-0.349999" height="0.699999" fill="none" id="connector21terminal" width="0.699999" stroke-width="0" class="terminal" x="57.2499" stroke="none"/>
<text y="73.7833" id="label" fill="#000000" text-anchor="middle" font-size="4.25001" stroke-width="0" class="text" font-family="'Droid Sans'" stroke="none" x="47.2499">Netduino</text>
</g>
</g></g></g><g partID='60890'><g transform='translate(23.73,15.3755)' ><g transform='matrix(0,1,-1,0,0,0)'  ><g id="schematic">
<g>
<path d="M13.5,14.966L9.9,14.966c-0.193,0,-0.35,-0.156,-0.35,-0.35s0.156,-0.35,0.35,-0.35L13.5,14.266c0.193,0,0.35,0.156,0.35,0.35S13.694,14.966,13.5,14.966z"/>
</g>
<g>
<path d="M9.9,14.966L6.3,14.966c-0.193,0,-0.35,-0.156,-0.35,-0.35s0.157,-0.35,0.35,-0.35l3.6,0c0.193,0,0.35,0.156,0.35,0.35S10.093,14.966,9.9,14.966z"/>
</g>
<g>
<polygon points="9.9,14.616,6.3,7.416,9.9,7.416,13.5,7.416" fill="#FFFFFF"/>
<path d="M9.9,15.398L5.734,7.066l8.333,0L9.9,15.398zM6.866,7.766L9.9,13.834l3.034,-6.068L6.866,7.766z"/>
</g>
<g>
<path d="M9.9,14.841c-0.124,0,-0.225,-0.101,-0.225,-0.225l0,-7.2c0,-0.124,0.101,-0.225,0.225,-0.225s0.225,0.101,0.225,0.225l0,7.2C10.124,14.74,10.024,14.841,9.9,14.841z"/>
</g>
<g>
<path d="M1.8,12.141c-0.058,0,-0.115,-0.021,-0.159,-0.065c-0.088,-0.088,-0.088,-0.23,0,-0.318l2.34,-2.341c0.088,-0.088,0.23,-0.088,0.318,0s0.088,0.23,0,0.318l-2.34,2.341C1.915,12.12,1.858,12.141,1.8,12.141z"/>
</g>
<g>
<path d="M2.16,15.381c-0.058,0,-0.115,-0.021,-0.159,-0.065c-0.088,-0.088,-0.088,-0.23,0,-0.318l2.34,-2.34c0.088,-0.088,0.23,-0.088,0.318,0s0.088,0.23,0,0.318l-2.34,2.34C2.276,15.359,2.218,15.381,2.16,15.381z"/>
</g>
<g id="connector0pin">
<path fill="#787878" d="M9.9,22.166c-0.193,0,-0.35,-0.156,-0.35,-0.35l0,-7.2c0,-0.193,0.156,-0.35,0.35,-0.35s0.35,0.156,0.35,0.35l0,7.2C10.249,22.01,10.093,22.166,9.9,22.166z"/>
</g>
<g id="connector0terminal">
<rect y="21.816" height="0.001" fill="none" width="0.001" x="9.9"/>
</g>
<g transform="matrix(1, 0, 0, 1, 3.429, 6.4262)">
<g>
<g transform="rotate(270)">
<g>
<g enable-background="new    ">
<path fill="#787878" d="M-11.647,5.54l-0.891,0L-12.538,5.388l0.342,-0.372c0.049,-0.053,0.093,-0.101,0.131,-0.145s0.071,-0.086,0.099,-0.128c0.026,-0.042,0.047,-0.084,0.062,-0.125c0.015,-0.043,0.021,-0.088,0.021,-0.138c0,-0.038,-0.005,-0.072,-0.017,-0.102s-0.027,-0.054,-0.047,-0.075c-0.021,-0.02,-0.045,-0.035,-0.073,-0.046s-0.06,-0.016,-0.094,-0.016c-0.062,0,-0.118,0.013,-0.167,0.038c-0.051,0.024,-0.098,0.057,-0.143,0.096l-0.1,-0.116c0.025,-0.023,0.055,-0.046,0.084,-0.065c0.029,-0.021,0.063,-0.039,0.097,-0.054s0.071,-0.026,0.109,-0.036c0.038,-0.008,0.079,-0.013,0.121,-0.013c0.063,0,0.119,0.009,0.169,0.026c0.051,0.018,0.094,0.043,0.129,0.076c0.035,0.032,0.063,0.072,0.082,0.119c0.019,0.048,0.028,0.101,0.028,0.16c0,0.056,-0.009,0.108,-0.026,0.158c-0.017,0.05,-0.041,0.1,-0.07,0.148c-0.031,0.048,-0.066,0.097,-0.109,0.146c-0.041,0.049,-0.087,0.1,-0.136,0.152L-12.32,5.37l0,0.008l0.673,0L-11.647,5.54z"/>
</g>
</g>
</g>
</g>
</g>
<g id="connector1pin">
<path fill="#787878" d="M9.9,7.766c-0.193,0,-0.35,-0.157,-0.35,-0.35l0,-7.2c0,-0.193,0.156,-0.35,0.35,-0.35s0.35,0.157,0.35,0.35l0,7.2C10.249,7.609,10.093,7.766,9.9,7.766z"/>
</g>
<g id="connector1terminal">
<polygon points="9.9,0.216,9.901,0.216,9.901,0.216" fill="none"/>
</g>
<g transform="matrix(1, 0, 0, 1, 3.429, 1.3462)">
<g>
<g transform="rotate(270)">
<g>
<g enable-background="new    ">
<path fill="#787878" d="M-2.616,5.54l-0.172,0L-2.788,4.648c0,-0.028,0,-0.058,0,-0.09s0.001,-0.063,0.002,-0.095c0.001,-0.032,0.002,-0.063,0.003,-0.092c0.001,-0.028,0.002,-0.054,0.002,-0.076c-0.011,0.012,-0.021,0.021,-0.029,0.03s-0.017,0.017,-0.026,0.024s-0.018,0.016,-0.028,0.025c-0.01,0.008,-0.021,0.019,-0.035,0.03l-0.145,0.118l-0.094,-0.12l0.374,-0.292l0.146,0L-2.618,5.54z"/>
</g>
</g>
</g>
</g>
</g>
<g>
<path d="M0.18,13.536l1.08,-2.521l1.44,1.438L0.18,13.536z"/>
</g>
<g>
<path d="M0.54,16.776l1.08,-2.521l1.438,1.438L0.54,16.776z"/>
</g>
</g>
</g></g></g><g partID='61730'><g transform='translate(1.56332,187.78)' ><g id="schematic" xmlns="http://www.w3.org/2000/svg">
<line y1="3.096" stroke-width="0.432002" y2="0.216" class="other" x1="7.55002" stroke-linecap="round" x2="8.63003" xmlns="http://www.w3.org/2000/svg" stroke="#000000"/>
<line y1="0.216" stroke-width="0.432002" y2="5.976" class="other" x1="8.63003" stroke-linecap="round" x2="10.43" xmlns="http://www.w3.org/2000/svg" stroke="#000000"/>
<line y1="5.976" stroke-width="0.432002" y2="0.216" class="other" x1="10.43" stroke-linecap="round" x2="12.23" xmlns="http://www.w3.org/2000/svg" stroke="#000000"/>
<line y1="0.216" stroke-width="0.432002" y2="5.976" class="other" x1="12.23" stroke-linecap="round" x2="14.03" xmlns="http://www.w3.org/2000/svg" stroke="#000000"/>
<line y1="5.976" stroke-width="0.432002" y2="0.216" class="other" x1="14.03" stroke-linecap="round" x2="15.8301" xmlns="http://www.w3.org/2000/svg" stroke="#000000"/>
<line y1="0.216" stroke-width="0.432002" y2="5.976" class="other" x1="15.8301" stroke-linecap="round" x2="17.6301" xmlns="http://www.w3.org/2000/svg" stroke="#000000"/>
<line y1="5.976" stroke-width="0.432002" y2="0.216" class="other" x1="17.6301" stroke-linecap="round" x2="19.4301" xmlns="http://www.w3.org/2000/svg" stroke="#000000"/>
<line y1="0.216" stroke-width="0.432002" y2="5.976" class="other" x1="19.4301" stroke-linecap="round" x2="21.2301" xmlns="http://www.w3.org/2000/svg" stroke="#000000"/>
<line y1="5.976" stroke-width="0.432002" y2="3.096" class="other" x1="21.2301" stroke-linecap="round" x2="21.9501" xmlns="http://www.w3.org/2000/svg" stroke="#000000"/>
<line connectorname="2" id="connector1pin" y1="3.096" stroke-width="0.700001" y2="3.096" class="pin" x1="29.1502" stroke-linecap="round" x2="21.9501" xmlns="http://www.w3.org/2000/svg" stroke="#787878"/>
<g y="3.096" height="0.000283465" id="connector1terminal" fill="none" width="0.000283466" stroke-width="0" class="terminal" xmlns="http://www.w3.org/2000/svg" x="29.1502" stroke="none"/>
<text y="2.046" fill="#8c8c8c" text-anchor="middle" font-size="2.50001" stroke-width="0" class="text" xmlns="http://www.w3.org/2000/svg" font-family="'Droid Sans'" stroke="none" x="25.5501">2</text>
<line connectorname="1" id="connector0pin" y1="3.096" stroke-width="0.700001" y2="3.096" class="pin" x1="0.350001" stroke-linecap="round" x2="7.55002" xmlns="http://www.w3.org/2000/svg" stroke="#787878"/>
<g y="3.096" height="0.000283465" id="connector0terminal" fill="none" width="0.000283466" stroke-width="0" class="terminal" xmlns="http://www.w3.org/2000/svg" x="0.350001" stroke="none"/>
<text y="2.046" fill="#8c8c8c" text-anchor="middle" font-size="2.50001" stroke-width="0" class="text" xmlns="http://www.w3.org/2000/svg" font-family="'Droid Sans'" stroke="none" x="3.95001">1</text>
</g>
</g></g><g partID='64670'><g transform='translate(2.45746,201.317)' ><g id="schematic">
<line fill="none" stroke-width="0.7" y1="11.159" y2="11.159" stroke-linecap="round" x1="19.8" x2="21.6" stroke="#000000"/>
<line fill="none" stroke-width="0.7" y1="11.159" y2="7.559" stroke-linecap="round" x1="7.2" x2="19.8" stroke="#000000"/>
<circle fill="none" stroke-width="0.7" cx="7.2" r="0.36" cy="11.159" stroke="#000000"/>
<circle fill="none" stroke-width="0.7" cx="21.6" r="0.36" cy="11.159" stroke="#000000"/>
<g transform="matrix(1, 0, 0, 1, 2.7612, 2.718)">
<text fill="#787878" font-size="2" font-family="'DroidSans'">1</text>
</g>
<g transform="matrix(1, 0, 0, 1, 24.604, 2.718)">
<text fill="#787878" font-size="2" font-family="'DroidSans'">2</text>
</g>
<g transform="matrix(1, 0, 0, 1, 2.7612, 16.843)">
<text fill="#787878" font-size="2" font-family="'DroidSans'">1</text>
</g>
<g transform="matrix(1, 0, 0, 1, 24.604, 16.843)">
<text fill="#787878" font-size="2" font-family="'DroidSans'">2</text>
</g>
<line fill="none" stroke-width="0.7" y1="3.96" y2="18.359" stroke-linecap="round" x1="21.6" x2="21.6" stroke="#000000"/>
<line fill="none" stroke-width="0.7" y1="3.96" y2="18.359" stroke-linecap="round" x1="7.2" x2="7.2" stroke="#000000"/>
<line id="connector3pin" fill="none" stroke-width="0.7" y1="18.359" y2="18.359" stroke-linecap="round" x1="0.322" x2="7.2" stroke="#555555"/>
<line id="connector2pin" fill="none" stroke-width="0.7" y1="3.96" y2="3.96" stroke-linecap="round" x1="0.322" x2="7.2" stroke="#555555"/>
<g points="0.822,4.281,0.837,3.64,0,3.64,0,4.281" id="connector2terminal" fill="none"/>
<g points="0.822,18.694,0.837,18.053,0,18.053,0,18.694" id="connector3terminal" fill="none"/>
<line id="connector1pin" fill="none" stroke-width="0.7" y1="18.359" y2="18.359" stroke-linecap="round" x1="28.451" x2="21.6" stroke="#555555"/>
<g y="18.006" height="0.672" id="connector1terminal" fill="none" width="0.994" x="27.806"/>
<g y="3.6" height="0.719" id="connector0terminal" fill="none" width="1.088" x="27.712"/>
<line id="connector0pin" fill="none" stroke-width="0.7" y1="3.96" y2="3.96" stroke-linecap="round" x1="28.451" x2="21.6" stroke="#555555"/>
</g>
</g></g><g partID='65010'><g transform='translate(37.5633,187.78)' ><g id="schematic" xmlns="http://www.w3.org/2000/svg">
<line y1="3.096" stroke-width="0.432002" y2="0.216" class="other" x1="7.55002" stroke-linecap="round" x2="8.63003" xmlns="http://www.w3.org/2000/svg" stroke="#000000"/>
<line y1="0.216" stroke-width="0.432002" y2="5.976" class="other" x1="8.63003" stroke-linecap="round" x2="10.43" xmlns="http://www.w3.org/2000/svg" stroke="#000000"/>
<line y1="5.976" stroke-width="0.432002" y2="0.216" class="other" x1="10.43" stroke-linecap="round" x2="12.23" xmlns="http://www.w3.org/2000/svg" stroke="#000000"/>
<line y1="0.216" stroke-width="0.432002" y2="5.976" class="other" x1="12.23" stroke-linecap="round" x2="14.03" xmlns="http://www.w3.org/2000/svg" stroke="#000000"/>
<line y1="5.976" stroke-width="0.432002" y2="0.216" class="other" x1="14.03" stroke-linecap="round" x2="15.8301" xmlns="http://www.w3.org/2000/svg" stroke="#000000"/>
<line y1="0.216" stroke-width="0.432002" y2="5.976" class="other" x1="15.8301" stroke-linecap="round" x2="17.6301" xmlns="http://www.w3.org/2000/svg" stroke="#000000"/>
<line y1="5.976" stroke-width="0.432002" y2="0.216" class="other" x1="17.6301" stroke-linecap="round" x2="19.4301" xmlns="http://www.w3.org/2000/svg" stroke="#000000"/>
<line y1="0.216" stroke-width="0.432002" y2="5.976" class="other" x1="19.4301" stroke-linecap="round" x2="21.2301" xmlns="http://www.w3.org/2000/svg" stroke="#000000"/>
<line y1="5.976" stroke-width="0.432002" y2="3.096" class="other" x1="21.2301" stroke-linecap="round" x2="21.9501" xmlns="http://www.w3.org/2000/svg" stroke="#000000"/>
<line connectorname="2" id="connector1pin" y1="3.096" stroke-width="0.700001" y2="3.096" class="pin" x1="29.1502" stroke-linecap="round" x2="21.9501" xmlns="http://www.w3.org/2000/svg" stroke="#787878"/>
<g y="3.096" height="0.000283465" id="connector1terminal" fill="none" width="0.000283466" stroke-width="0" class="terminal" xmlns="http://www.w3.org/2000/svg" x="29.1502" stroke="none"/>
<text y="2.046" fill="#8c8c8c" text-anchor="middle" font-size="2.50001" stroke-width="0" class="text" xmlns="http://www.w3.org/2000/svg" font-family="'Droid Sans'" stroke="none" x="25.5501">2</text>
<line connectorname="1" id="connector0pin" y1="3.096" stroke-width="0.700001" y2="3.096" class="pin" x1="0.350001" stroke-linecap="round" x2="7.55002" xmlns="http://www.w3.org/2000/svg" stroke="#787878"/>
<g y="3.096" height="0.000283465" id="connector0terminal" fill="none" width="0.000283466" stroke-width="0" class="terminal" xmlns="http://www.w3.org/2000/svg" x="0.350001" stroke="none"/>
<text y="2.046" fill="#8c8c8c" text-anchor="middle" font-size="2.50001" stroke-width="0" class="text" xmlns="http://www.w3.org/2000/svg" font-family="'Droid Sans'" stroke="none" x="3.95001">1</text>
</g>
</g></g><g partID='61760'><line stroke-linecap='round' stroke='#157de6' x1='23.514' y1='25.276' x2='1.91346' y2='190.876' stroke-width='0.4' /></g><g partID='62040'><line stroke-linecap='round' stroke='#00a527' x1='131.513' y1='176.476' x2='30.7136' y2='190.876' stroke-width='0.4' /></g><g partID='62250'><line stroke-linecap='round' stroke='#000000' x1='1.91346' y1='25.276' x2='9.11346' y2='126.076' stroke-width='0.4' /></g><g partID='65060'><line stroke-linecap='round' stroke='#ab58a2' x1='66.7136' y1='190.876' x2='52.3135' y2='176.476' stroke-width='0.4' /></g><g partID='65080'><line stroke-linecap='round' stroke='#ab58a2' x1='2.87596' y1='205.277' x2='52.3135' y2='176.476' stroke-width='0.4' /></g><g partID='65190'><line stroke-linecap='round' stroke='#cc1414' x1='37.9135' y1='190.876' x2='30.7135' y2='205.276' stroke-width='0.4' /></g><g partID='65210'><line stroke-linecap='round' stroke='#cc1414' x1='160.313' y1='118.876' x2='37.9135' y2='190.876' stroke-width='0.4' /></g><g partID='57560' id='partLabel'><g transform='translate(131.513,48.476)' ><g font-size='5' font-style='normal' font-weight='normal' fill='#000000' font-family="'DroidSans'" id='schematicLabel' fill-opacity='1' stroke='none' ><text x='0' y='3.75'>Netduino1</text></g></g></g><g partID='60890' id='partLabel'><g transform='translate(19.5545,0)' ><g font-size='5' font-style='normal' font-weight='normal' fill='#000000' font-family="'DroidSans'" id='schematicLabel' fill-opacity='1' stroke='none' ><text x='0' y='3.75'>LED1</text><text x='0' y='8.75'>Red (633nm)</text></g></g></g><g partID='61730' id='partLabel'><g transform='translate(31.0633,176.58)' ><g font-size='5' font-style='normal' font-weight='normal' fill='#000000' font-family="'DroidSans'" id='schematicLabel' fill-opacity='1' stroke='none' ><text x='0' y='3.75'>R1</text><text x='0' y='8.75'>220&#x3a9;</text></g></g></g><g partID='64670' id='partLabel'><g transform='translate(31.2575,195.717)' ><g font-size='5' font-style='normal' font-weight='normal' fill='#000000' font-family="'DroidSans'" id='schematicLabel' fill-opacity='1' stroke='none' ><text x='0' y='3.75'>S1</text></g></g></g><g partID='65010' id='partLabel'><g transform='translate(67.0633,176.58)' ><g font-size='5' font-style='normal' font-weight='normal' fill='#000000' font-family="'DroidSans'" id='schematicLabel' fill-opacity='1' stroke='none' ><text x='0' y='3.75'>R2</text><text x='0' y='8.75'>220&#x3a9;</text></g></g></g></svg>